<?xml version="1.0" encoding="utf-8"?>
<!-- Generator: Adobe Illustrator 21.0.0, SVG Export Plug-In . SVG Version: 6.00 Build 0)  -->
<svg version="1.1" id="Layer_1" xmlns="http://www.w3.org/2000/svg" xmlns:xlink="http://www.w3.org/1999/xlink" x="0px" y="0px"
	 width="1400px" height="980px" viewBox="0 0 1400 980" enable-background="new 0 0 1400 980" xml:space="preserve">
<g>
	<rect id="XMLID_880_" fill="#F5FAF4" width="1400" height="980"/>
	<rect id="XMLID_879_" x="28.3" y="19.8" fill="#ADC6B9" width="1343.5" height="940.4"/>
	<g>
		<path fill="#F0D0B4" d="M780.5,701.4h-161L395.9,817.1V954h608.2V821.9c0-2.9-1.6-5.7-4.3-7L780.5,701.4z"/>
		<g>
			<polygon fill="#F0D0B4" points="794.9,813.4 605.1,813.4 634.7,529.5 765.3,529.5 			"/>
			<path fill="#DFB28B" d="M777,642.2l-11.7-112.7H634.7l-8.4,80.3C626.3,609.8,715.2,677.3,777,642.2z"/>
		</g>
		<g>
			<path fill="#77786A" d="M810,708c-6.1,30.9-53,54.9-110,54.9s-104-24-110-54.9l-171.6,92c-19.1,10.2-33,29.5-37.7,52.2
				l-22.6,109.3h683.7l-19.3-93.4c-6.8-32.9-27.8-61.1-57.4-77L810,708z"/>
			<path fill="#5F5E52" d="M972.5,795.1l-142.4-76.4c0,0-101.2,240.7-243.1,112.8l66.9,97.6c0,0-264.3-77.6-261.7,32.3h649.6
				l-21-101.6C1015.1,832.2,997.4,808.5,972.5,795.1z"/>
		</g>
		<g>
			<path fill="#EBC19C" d="M599,434.3l-14.4-9.4c-5.7-3.7-13.4-1.9-16.9,3.9l-1.1,1.8c-1.9,3.2-2.2,7.2-0.7,10.7l17.8,41.6
				c1.1,2.5,2.9,4.5,5.3,5.8l3.5,1.9c4.8,2.6,10.6,1.6,14.4-2.2l2.5-2.6c2.8-2.9,4-7.1,3-11l-8.2-33.4
				C603.3,438.5,601.5,436,599,434.3z"/>
			<path fill="#EBC19C" d="M797.1,434.3l14.4-9.4c5.7-3.7,13.4-1.9,16.9,3.9l1.1,1.8c1.9,3.2,2.2,7.2,0.7,10.7l-17.8,41.6
				c-1.1,2.5-2.9,4.5-5.3,5.8l-3.5,1.9c-4.8,2.6-10.6,1.6-14.4-2.2l-2.5-2.6c-2.8-2.9-4-7.1-3-11l8.2-33.4
				C792.7,438.5,794.5,436,797.1,434.3z"/>
		</g>
		<polygon fill="#F0D0B4" points="733.5,288.6 666.5,288.6 596.8,336.9 588.1,454.9 603,520 666.5,616.1 733.5,616.1 794.3,518.3 
			804.5,448.5 802.1,341 		"/>
		<polygon fill="#8C715D" points="692.4,517.4 691.2,525 690.8,518 686.5,519.6 686.5,526.5 685.2,520 660.7,529 659.7,537.3 
			695,528 695.3,516.3 		"/>
		<polygon fill="#8C715D" points="744.9,523.9 719.8,518.2 717.5,524.3 717.2,517.6 713.6,516.7 712.3,524.5 711.9,516.3 
			708.2,515.5 709.8,527.9 746.8,533 		"/>
		<g>
			
				<linearGradient id="SVGID_1_" gradientUnits="userSpaceOnUse" x1="1968.5535" y1="412.8993" x2="1968.5535" y2="553.6892" gradientTransform="matrix(1 0 0 1 -1268.5535 0)">
				<stop  offset="1.891892e-02" style="stop-color:#F0D0B4"/>
				<stop  offset="1" style="stop-color:#B34A26"/>
			</linearGradient>
			<polygon fill="url(#SVGID_1_)" points="712.8,484.5 709.4,484.5 715.4,418.9 684.6,418.9 690.6,484.5 687.2,484.5 683.5,505.2 
				688.9,508.8 693.6,518.3 695,518.3 705,518.3 706.5,518.3 711.8,508.8 716.5,505.2 			"/>
			<path fill="#9A714A" d="M693.6,518.3h1.4H705h1.4l5.4-9.6l4.7-3.6c-18.2-15.1-33,0-33,0l5.3,3.6L693.6,518.3z"/>
			<ellipse opacity="0.5" fill="#EFC7B1" cx="700" cy="499.7" rx="9.5" ry="8.5"/>
		</g>
		<g>
			<path fill="#D09F76" d="M629.2,415.6c0.2,1.1,0.3,1.7,0.3,1.7C629.4,416.8,629.3,416.2,629.2,415.6z"/>
			<g>
				<path fill="#D09F76" d="M803.3,424.5l0.3-16.3l5-75.7c0,0-73.5-48.3-75.2-48.8c-1.6-0.5-86.6,10.4-86.6,10.4l-52.2,36.2
					l-3.3,80.3l-4.4,9.5c2.9,13.1,2.1,21.9,2.1,21.9l10.8-27.2l-0.5-24.3c1.8,12.6,19.6,23.2,19.6,23.2s-30.9-39.5,7-73.2
					c3.5-3.1,7.4-5.7,11.6-7.8c-10.6,15.3-15.5,41-8.3,83c-1.8-11.4-9.6-76.6,36.8-90.6c37.6-3.6,79.3,11.8,79.3,11.8
					c52.2-32.5,49.9,44.2,33.1,47.3c14.8,2.5,20.8-23.3,20.8-23.3l-5.8,25.3L803.3,424.5z"/>
			</g>
		</g>
		<path fill="#8C715D" d="M834.6,329.3c-9.5-45.7-54.7-47.3-54.7-47.3c2.9-25.1-19.9-36.4-49.4-39.8
			c-32.7-14.5-84.9-25.3-136.7,16.2c3-2.3,42.5-31.3,104.9-17.1c-28.9,1.2-58,7.3-73.1,14c-37.4,16.5-72,89.3-72,89.3l22.2-14.4
			l-22.2,21.4c0,0,22.3,3.6,26,15.9S589,442,589,442l7.5-30.5l-0.5-24.3c1.8,12.6,19.6,23.2,19.6,23.2s-30.9-39.5,7-73.2
			c37.9-33.7,119.4-3.7,119.4-3.7c52.2-32.5,49.9,44.2,33.1,47.3c14.8,2.5,20.8-23.3,20.8-23.3l-5.8,25.3l14,47.5
			c-1.4-69,30.5-88.2,30.5-88.2l-14.8-27.6L834.6,329.3z"/>
		<path fill="#72594B" d="M626.2,414c0,0-26-138.6,114.9-81l-19.2-15.7C721.8,317.3,599.9,266,626.2,414z"/>
		<path fill="#D09F76" d="M662.8,538.5l33.3-8.1c0,0,7.6,3.3,15,0l34.9,3.9L662.8,538.5z"/>
		<path fill="#DFB28B" d="M680.2,561.9h49.7C705,534.2,680.2,561.9,680.2,561.9z"/>
		<g>
			<path fill="#72594B" d="M713.1,418.9l10.4,6.4l14.3,1.4c0,0,27.6-19.1,54.2-1.3C792.1,425.4,765.9,398.4,713.1,418.9z"/>
			<path fill="#72594B" d="M607.9,423.4c26.4-17.3,53.4,1.8,53.4,1.8l14.1-1.3l10.3-6.2C633.9,397.1,607.9,423.4,607.9,423.4z"/>
		</g>
		<g>
			<polygon fill="#735A4C" points="760.7,428.5 763.6,435.7 767.5,435.7 761.6,426.2 732.6,423.4 724.7,435.7 729.4,435.7 
				733.9,426.6 738.9,435.7 755.5,435.7 			"/>
			<polygon fill="#735A4C" points="639.3,428.5 636.4,435.7 632.5,435.7 638.4,426.2 667.4,423.4 675.3,435.7 670.6,435.7 
				666.1,426.6 661.1,435.7 644.5,435.7 			"/>
		</g>
		<path fill="#8C715D" d="M745,567.7c0,0-5.3,24.7-12.7,26c-7.3,1.3-21.3-14-21.3-14h-24c0,0-14.7,14-22.7,14s-14-25.3-14-25.3
			l-23.3-12l0,0l39.5,59.8h67.1l38.1-61.2L745,567.7z"/>
		<g>
			<path fill="#C0A58D" d="M627,556.4c-5.3-19.3-2-48.7-2-48.7L588.1,454l-0.1,0.9L603,520L627,556.4z"/>
			<path fill="#C0A58D" d="M771.6,554.9L771.6,554.9l22.7-36.6l10.2-69.8l-0.1-3.1L771.7,499C777.7,511.7,771.6,554.9,771.6,554.9z"
				/>
		</g>
	</g>
</g>
</svg>
